<svg xmlns="http://www.w3.org/2000/svg" viewBox="0 0 1000 1000" width="1000" height="1000">
	<style>
		tspan { white-space:pre }
		.shp0 { fill: #4c6a8d } 
		.shp1 { fill: #ff0000 } 
	</style>
	<g id="Layer">
		<g id="Layer">
			<path id="Layer" fill-rule="evenodd" class="shp0" d="M667.42 10L990 332.58L332.58 990L10 667.42L667.42 10ZM671.5 108C669.05 108 652.72 121.88 636.41 138.99L606.19 170.03L663.35 225.57L619.25 271.31L560.45 214.15L534.32 241.1L508.18 268.05L565.34 323.59L521.24 369.33L462.44 312.17L436.31 339.12L410.17 366.07L471.42 426.5L532.69 486.89L510.64 509.76L488.59 532.62L364.45 410.12L338.32 437.07L312.18 464.02L369.34 519.56L325.24 565.3L266.44 508.14L240.31 535.09L214.17 562.04L271.33 617.58L227.23 663.32L168.43 606.16L104.73 671.5L216.62 784.2L328.5 896.08L896.08 328.5L785.83 218.25C725.4 157.82 673.95 108 671.5 108Z" />
		</g>
		<path id="Shape 1" class="shp1" d="M299 405" />
	</g>
</svg>